<mxfile host="app.diagrams.net" modified="2020-12-09T23:29:22.811Z" agent="5.0 (Macintosh; Intel Mac OS X 10_15_7) AppleWebKit/537.36 (KHTML, like Gecko) Chrome/87.0.4280.88 Safari/537.36" etag="BsVkOer8JGITKE5dQVMl" version="14.0.0" type="github">
  <diagram id="ubl3bhUYu1To4sH9TIaJ" name="create profile">
    <mxGraphModel dx="868" dy="471" grid="1" gridSize="10" guides="1" tooltips="1" connect="1" arrows="1" fold="1" page="1" pageScale="1" pageWidth="850" pageHeight="1100" math="0" shadow="0">
      <root>
        <mxCell id="0" />
        <mxCell id="1" parent="0" />
        <mxCell id="181y0buaZu7F3BsmVMhp-11" style="edgeStyle=orthogonalEdgeStyle;rounded=0;orthogonalLoop=1;jettySize=auto;html=1;exitX=1;exitY=0.25;exitDx=0;exitDy=0;entryX=0.231;entryY=0.368;entryDx=0;entryDy=0;entryPerimeter=0;fontFamily=Helvetica;" edge="1" parent="1" source="P_4rhFblrnJcOsnVotB_-4" target="181y0buaZu7F3BsmVMhp-2">
          <mxGeometry relative="1" as="geometry" />
        </mxCell>
        <mxCell id="P_4rhFblrnJcOsnVotB_-4" value="LOG IN" style="rounded=1;whiteSpace=wrap;html=1;fontSize=12;glass=0;strokeWidth=1;shadow=0;" parent="1" vertex="1">
          <mxGeometry x="200" y="540" width="120" height="40" as="geometry" />
        </mxCell>
        <mxCell id="P_4rhFblrnJcOsnVotB_-15" style="edgeStyle=orthogonalEdgeStyle;rounded=0;orthogonalLoop=1;jettySize=auto;html=1;exitX=1;exitY=0.5;exitDx=0;exitDy=0;entryX=0;entryY=0.5;entryDx=0;entryDy=0;fontFamily=Helvetica;" parent="1" source="P_4rhFblrnJcOsnVotB_-11" target="P_4rhFblrnJcOsnVotB_-12" edge="1">
          <mxGeometry relative="1" as="geometry" />
        </mxCell>
        <mxCell id="P_4rhFblrnJcOsnVotB_-18" style="edgeStyle=orthogonalEdgeStyle;rounded=0;orthogonalLoop=1;jettySize=auto;html=1;exitX=0.5;exitY=1;exitDx=0;exitDy=0;entryX=0;entryY=0.5;entryDx=0;entryDy=0;fontFamily=Helvetica;" parent="1" source="P_4rhFblrnJcOsnVotB_-11" target="P_4rhFblrnJcOsnVotB_-4" edge="1">
          <mxGeometry relative="1" as="geometry" />
        </mxCell>
        <mxCell id="P_4rhFblrnJcOsnVotB_-23" style="edgeStyle=orthogonalEdgeStyle;rounded=0;orthogonalLoop=1;jettySize=auto;html=1;exitX=0.5;exitY=0;exitDx=0;exitDy=0;entryX=0;entryY=0.25;entryDx=0;entryDy=0;fontFamily=Helvetica;" parent="1" source="P_4rhFblrnJcOsnVotB_-11" target="P_4rhFblrnJcOsnVotB_-13" edge="1">
          <mxGeometry relative="1" as="geometry" />
        </mxCell>
        <mxCell id="P_4rhFblrnJcOsnVotB_-11" value="CREATE PROFILE" style="rhombus;whiteSpace=wrap;html=1;shadow=0;fontFamily=Helvetica;fontSize=12;align=center;strokeWidth=1;spacing=6;spacingTop=-4;" parent="1" vertex="1">
          <mxGeometry x="30" y="380" width="100" height="80" as="geometry" />
        </mxCell>
        <mxCell id="P_4rhFblrnJcOsnVotB_-26" style="edgeStyle=orthogonalEdgeStyle;rounded=0;orthogonalLoop=1;jettySize=auto;html=1;exitX=1;exitY=0.5;exitDx=0;exitDy=0;entryX=0;entryY=0.5;entryDx=0;entryDy=0;fontFamily=Helvetica;" parent="1" source="P_4rhFblrnJcOsnVotB_-12" target="P_4rhFblrnJcOsnVotB_-25" edge="1">
          <mxGeometry relative="1" as="geometry" />
        </mxCell>
        <mxCell id="P_4rhFblrnJcOsnVotB_-12" value="SIGN UP" style="rounded=1;whiteSpace=wrap;html=1;fontSize=12;glass=0;strokeWidth=1;shadow=0;" parent="1" vertex="1">
          <mxGeometry x="210" y="250" width="120" height="40" as="geometry" />
        </mxCell>
        <mxCell id="P_4rhFblrnJcOsnVotB_-40" style="edgeStyle=orthogonalEdgeStyle;rounded=0;orthogonalLoop=1;jettySize=auto;html=1;exitX=1;exitY=0.5;exitDx=0;exitDy=0;entryX=0;entryY=0.5;entryDx=0;entryDy=0;fontFamily=Helvetica;" parent="1" source="P_4rhFblrnJcOsnVotB_-13" target="P_4rhFblrnJcOsnVotB_-34" edge="1">
          <mxGeometry relative="1" as="geometry" />
        </mxCell>
        <mxCell id="P_4rhFblrnJcOsnVotB_-41" style="edgeStyle=orthogonalEdgeStyle;rounded=0;orthogonalLoop=1;jettySize=auto;html=1;exitX=1;exitY=0.75;exitDx=0;exitDy=0;entryX=0;entryY=0.75;entryDx=0;entryDy=0;fontFamily=Helvetica;" parent="1" source="P_4rhFblrnJcOsnVotB_-13" target="P_4rhFblrnJcOsnVotB_-35" edge="1">
          <mxGeometry relative="1" as="geometry" />
        </mxCell>
        <mxCell id="P_4rhFblrnJcOsnVotB_-13" value="landing page:&lt;br&gt;WHO ARE WE?&lt;br&gt;(static page)" style="rounded=1;whiteSpace=wrap;html=1;fontSize=12;glass=0;strokeWidth=1;shadow=0;" parent="1" vertex="1">
          <mxGeometry x="190" y="20" width="140" height="40" as="geometry" />
        </mxCell>
        <mxCell id="181y0buaZu7F3BsmVMhp-23" style="edgeStyle=orthogonalEdgeStyle;rounded=0;orthogonalLoop=1;jettySize=auto;html=1;exitX=0.5;exitY=0;exitDx=0;exitDy=0;entryX=0;entryY=0.5;entryDx=0;entryDy=0;fontFamily=Helvetica;" edge="1" parent="1" source="P_4rhFblrnJcOsnVotB_-25" target="P_4rhFblrnJcOsnVotB_-27">
          <mxGeometry relative="1" as="geometry" />
        </mxCell>
        <mxCell id="181y0buaZu7F3BsmVMhp-24" style="edgeStyle=orthogonalEdgeStyle;rounded=0;orthogonalLoop=1;jettySize=auto;html=1;exitX=0.75;exitY=0;exitDx=0;exitDy=0;entryX=0;entryY=0.5;entryDx=0;entryDy=0;fontFamily=Helvetica;" edge="1" parent="1" source="P_4rhFblrnJcOsnVotB_-25" target="P_4rhFblrnJcOsnVotB_-28">
          <mxGeometry relative="1" as="geometry" />
        </mxCell>
        <mxCell id="181y0buaZu7F3BsmVMhp-25" style="edgeStyle=orthogonalEdgeStyle;rounded=0;orthogonalLoop=1;jettySize=auto;html=1;exitX=1;exitY=0;exitDx=0;exitDy=0;entryX=0;entryY=0.5;entryDx=0;entryDy=0;fontFamily=Helvetica;" edge="1" parent="1" source="P_4rhFblrnJcOsnVotB_-25" target="181y0buaZu7F3BsmVMhp-15">
          <mxGeometry relative="1" as="geometry" />
        </mxCell>
        <mxCell id="181y0buaZu7F3BsmVMhp-26" style="edgeStyle=orthogonalEdgeStyle;rounded=0;orthogonalLoop=1;jettySize=auto;html=1;exitX=1;exitY=0.5;exitDx=0;exitDy=0;entryX=0;entryY=0.75;entryDx=0;entryDy=0;fontFamily=Helvetica;" edge="1" parent="1" source="P_4rhFblrnJcOsnVotB_-25" target="P_4rhFblrnJcOsnVotB_-44">
          <mxGeometry relative="1" as="geometry" />
        </mxCell>
        <mxCell id="181y0buaZu7F3BsmVMhp-27" style="edgeStyle=orthogonalEdgeStyle;rounded=0;orthogonalLoop=1;jettySize=auto;html=1;exitX=0.75;exitY=1;exitDx=0;exitDy=0;entryX=0;entryY=0.5;entryDx=0;entryDy=0;fontFamily=Helvetica;" edge="1" parent="1" source="P_4rhFblrnJcOsnVotB_-25" target="181y0buaZu7F3BsmVMhp-14">
          <mxGeometry relative="1" as="geometry" />
        </mxCell>
        <mxCell id="181y0buaZu7F3BsmVMhp-28" style="edgeStyle=orthogonalEdgeStyle;rounded=0;orthogonalLoop=1;jettySize=auto;html=1;exitX=0.25;exitY=1;exitDx=0;exitDy=0;entryX=0;entryY=0.75;entryDx=0;entryDy=0;fontFamily=Helvetica;" edge="1" parent="1" source="P_4rhFblrnJcOsnVotB_-25" target="181y0buaZu7F3BsmVMhp-13">
          <mxGeometry relative="1" as="geometry" />
        </mxCell>
        <mxCell id="P_4rhFblrnJcOsnVotB_-25" value="&amp;nbsp; &amp;nbsp; REGISTER" style="rounded=1;whiteSpace=wrap;html=1;fontFamily=Helvetica;align=left;" parent="1" vertex="1">
          <mxGeometry x="400" y="350" width="95" height="40" as="geometry" />
        </mxCell>
        <mxCell id="P_4rhFblrnJcOsnVotB_-27" value="string: name; surname, username" style="rounded=0;whiteSpace=wrap;html=1;fontFamily=Helvetica;align=center;" parent="1" vertex="1">
          <mxGeometry x="560" y="170" width="120" height="40" as="geometry" />
        </mxCell>
        <mxCell id="P_4rhFblrnJcOsnVotB_-28" value="int: DOB" style="rounded=0;whiteSpace=wrap;html=1;fontFamily=Helvetica;align=center;" parent="1" vertex="1">
          <mxGeometry x="560" y="220" width="120" height="40" as="geometry" />
        </mxCell>
        <mxCell id="P_4rhFblrnJcOsnVotB_-34" value="STAKEHOLDERS" style="rounded=1;whiteSpace=wrap;html=1;fontFamily=Helvetica;align=center;" parent="1" vertex="1">
          <mxGeometry x="410" y="20" width="110" height="40" as="geometry" />
        </mxCell>
        <mxCell id="P_4rhFblrnJcOsnVotB_-35" value="OUR PARTNERS" style="rounded=1;whiteSpace=wrap;html=1;fontFamily=Helvetica;align=center;" parent="1" vertex="1">
          <mxGeometry x="410" y="80" width="110" height="40" as="geometry" />
        </mxCell>
        <mxCell id="P_4rhFblrnJcOsnVotB_-42" value="generate a bitmoji: jpg/ng" style="rounded=0;whiteSpace=wrap;html=1;fontFamily=Helvetica;align=center;" parent="1" vertex="1">
          <mxGeometry x="730" y="330" width="120" height="40" as="geometry" />
        </mxCell>
        <mxCell id="181y0buaZu7F3BsmVMhp-1" style="edgeStyle=orthogonalEdgeStyle;rounded=0;orthogonalLoop=1;jettySize=auto;html=1;exitX=1;exitY=0.5;exitDx=0;exitDy=0;entryX=0;entryY=0.75;entryDx=0;entryDy=0;fontFamily=Helvetica;" edge="1" parent="1" source="P_4rhFblrnJcOsnVotB_-44" target="P_4rhFblrnJcOsnVotB_-42">
          <mxGeometry relative="1" as="geometry" />
        </mxCell>
        <mxCell id="P_4rhFblrnJcOsnVotB_-44" value="CREATE AVATAR" style="rounded=1;whiteSpace=wrap;html=1;fontFamily=Helvetica;align=center;" parent="1" vertex="1">
          <mxGeometry x="575" y="340" width="90" height="40" as="geometry" />
        </mxCell>
        <mxCell id="181y0buaZu7F3BsmVMhp-7" style="edgeStyle=orthogonalEdgeStyle;rounded=0;orthogonalLoop=1;jettySize=auto;html=1;exitX=0.5;exitY=1;exitDx=0;exitDy=0;entryX=0.5;entryY=0;entryDx=0;entryDy=0;fontFamily=Helvetica;" edge="1" parent="1" source="181y0buaZu7F3BsmVMhp-2" target="181y0buaZu7F3BsmVMhp-6">
          <mxGeometry relative="1" as="geometry" />
        </mxCell>
        <mxCell id="181y0buaZu7F3BsmVMhp-2" value="My worksapce" style="rounded=1;whiteSpace=wrap;html=1;fontFamily=Helvetica;align=center;" vertex="1" parent="1">
          <mxGeometry x="400" y="532.5" width="130" height="47.5" as="geometry" />
        </mxCell>
        <mxCell id="181y0buaZu7F3BsmVMhp-6" value="edit" style="rounded=0;whiteSpace=wrap;html=1;fontFamily=Helvetica;align=center;" vertex="1" parent="1">
          <mxGeometry x="420" y="610" width="80" height="40" as="geometry" />
        </mxCell>
        <mxCell id="181y0buaZu7F3BsmVMhp-12" value="OPPORTUNITIES" style="rounded=1;whiteSpace=wrap;html=1;fontFamily=Helvetica;align=center;" vertex="1" parent="1">
          <mxGeometry x="410" y="140" width="110" height="40" as="geometry" />
        </mxCell>
        <mxCell id="181y0buaZu7F3BsmVMhp-29" style="edgeStyle=orthogonalEdgeStyle;rounded=0;orthogonalLoop=1;jettySize=auto;html=1;exitX=0.5;exitY=1;exitDx=0;exitDy=0;entryX=1;entryY=0.75;entryDx=0;entryDy=0;fontFamily=Helvetica;" edge="1" parent="1" source="181y0buaZu7F3BsmVMhp-13" target="181y0buaZu7F3BsmVMhp-2">
          <mxGeometry relative="1" as="geometry" />
        </mxCell>
        <mxCell id="181y0buaZu7F3BsmVMhp-13" value="string: email address" style="rounded=0;whiteSpace=wrap;html=1;fontFamily=Helvetica;align=left;" vertex="1" parent="1">
          <mxGeometry x="560" y="480" width="120" height="40" as="geometry" />
        </mxCell>
        <mxCell id="181y0buaZu7F3BsmVMhp-14" value="highest level of education" style="rounded=0;whiteSpace=wrap;html=1;fontFamily=Helvetica;align=center;" vertex="1" parent="1">
          <mxGeometry x="560" y="410" width="120" height="40" as="geometry" />
        </mxCell>
        <mxCell id="181y0buaZu7F3BsmVMhp-15" value="current Location" style="rounded=0;whiteSpace=wrap;html=1;fontFamily=Helvetica;align=center;" vertex="1" parent="1">
          <mxGeometry x="560" y="270" width="120" height="40" as="geometry" />
        </mxCell>
      </root>
    </mxGraphModel>
  </diagram>
</mxfile>
